<svg xmlns="http://www.w3.org/2000/svg" viewBox="0 0 620 204" style="background:#faf9f5;border-radius:12px;padding:8px"><rect width="620" height="204" rx="12" fill="#faf9f5"/><rect x="200" y="16" width="160.0" height="160" fill="rgba(192,73,47,.06)"/><rect x="384.0" y="16" width="216.0" height="160" fill="rgba(58,125,82,.06)"/><line x1="360.0" y1="12" x2="360.0" y2="176" stroke="#9a8f55" stroke-width="1.5" stroke-dasharray="4,3"/><text x="360.0" y="10" text-anchor="middle" fill="#9a8f55" font-size="10" font-weight="600">same</text><text x="204" y="196" fill="#c0492f" font-size="10">← grep is cheaper</text><text x="388.0" y="196" fill="#3a7d52" font-size="10">graph saves context →</text><rect x="360.0" y="26" width="65.2" height="20" rx="4" fill="#3a7d52" opacity=".75"/><circle cx="425.2" cy="36" r="5" fill="#3a7d52"/><text x="190" y="40" text-anchor="end" fill="#1f1d1a" font-size="13">Explain the codebase</text><text x="435.2" y="40" fill="#3a7d52" font-size="12" font-weight="600">1.41×</text><rect x="360.0" y="66" width="140.8" height="20" rx="4" fill="#3a7d52" opacity=".75"/><circle cx="500.8" cy="76" r="5" fill="#3a7d52"/><text x="190" y="80" text-anchor="end" fill="#1f1d1a" font-size="13">Find relevant code</text><text x="510.8" y="80" fill="#3a7d52" font-size="12" font-weight="600">1.88×</text><rect x="360.0" y="106" width="74.0" height="20" rx="4" fill="#3a7d52" opacity=".75"/><circle cx="434.0" cy="116" r="5" fill="#3a7d52"/><text x="190" y="120" text-anchor="end" fill="#1f1d1a" font-size="13">What breaks if I change X?</text><text x="444.0" y="120" fill="#3a7d52" font-size="12" font-weight="600">1.46×</text><rect x="360.0" y="146" width="70.5" height="20" rx="4" fill="#3a7d52" opacity=".75"/><circle cx="430.5" cy="156" r="5" fill="#3a7d52"/><text x="190" y="160" text-anchor="end" fill="#1f1d1a" font-size="13">Show connections around X</text><text x="440.5" y="160" fill="#3a7d52" font-size="12" font-weight="600">1.44×</text></svg>