<svg xmlns="http://www.w3.org/2000/svg" viewBox="0 0 500 284" style="background:#faf9f5;border-radius:12px;padding:8px"><rect width="500" height="284" rx="12" fill="#faf9f5"/><rect x="90" y="4" width="12" height="12" rx="2" fill="#e0a07f" opacity=".85"/><text x="106" y="14" fill="#76726a" font-size="11">Without graph (grep)</text><rect x="235" y="4" width="12" height="12" rx="2" fill="#5aab77" opacity=".85"/><text x="251" y="14" fill="#76726a" font-size="11">With GitCortex graph</text><rect x="90" y="40" width="269.2" height="22" rx="3" fill="#e0a07f" opacity=".85"/><text x="364.2" y="56" fill="#76726a" font-size="11">23¢</text><rect x="90" y="65" width="175.6" height="22" rx="3" fill="#5aab77" opacity=".85"/><text x="270.6" y="82" fill="#76726a" font-size="11">15¢</text><text x="84" y="63" text-anchor="end" fill="#1f1d1a" font-size="13">cobra</text><text x="397.2" y="46" fill="#3a7d52" font-size="10" font-weight="600">−35%</text><rect x="90" y="100" width="140.5" height="22" rx="3" fill="#e0a07f" opacity=".85"/><text x="235.5" y="116" fill="#76726a" font-size="11">12¢</text><rect x="90" y="125" width="152.2" height="22" rx="3" fill="#5aab77" opacity=".85"/><text x="247.2" y="142" fill="#76726a" font-size="11">13¢</text><text x="84" y="123" text-anchor="end" fill="#1f1d1a" font-size="13">gson</text><rect x="90" y="160" width="304.3" height="22" rx="3" fill="#e0a07f" opacity=".85"/><text x="399.3" y="176" fill="#76726a" font-size="11">26¢</text><rect x="90" y="185" width="128.8" height="22" rx="3" fill="#5aab77" opacity=".85"/><text x="223.8" y="202" fill="#76726a" font-size="11">11¢</text><text x="84" y="183" text-anchor="end" fill="#1f1d1a" font-size="13">hono</text><text x="432.3" y="166" fill="#3a7d52" font-size="10" font-weight="600">−58%</text><rect x="90" y="220" width="292.6" height="22" rx="3" fill="#e0a07f" opacity=".85"/><text x="387.6" y="236" fill="#76726a" font-size="11">25¢</text><rect x="90" y="245" width="128.8" height="22" rx="3" fill="#5aab77" opacity=".85"/><text x="223.8" y="262" fill="#76726a" font-size="11">11¢</text><text x="84" y="243" text-anchor="end" fill="#1f1d1a" font-size="13">ripgrep</text><text x="420.6" y="226" fill="#3a7d52" font-size="10" font-weight="600">−56%</text></svg>